<svg width="74" height="74" viewBox="0 0 74 74" fill="none" xmlns="http://www.w3.org/2000/svg">
<circle cx="37" cy="37" r="37" fill="white"/>
<rect x="15" y="17" width="43" height="43" fill="white"/>
<path d="M36.1935 37.7133C39.0392 37.7133 41.5029 36.6927 43.5166 34.679C45.5296 32.6657 46.5505 30.2023 46.5505 27.3563C46.5505 24.5113 45.5299 22.0476 43.5162 20.0336C41.5026 18.0206 39.0388 17 36.1935 17C33.3476 17 30.8841 18.0206 28.8708 20.0339C26.8575 22.0473 25.8365 24.511 25.8365 27.3563C25.8365 30.2023 26.8575 32.666 28.8708 34.6793C30.8848 36.6923 33.3486 37.7133 36.1935 37.7133ZM30.6529 21.8156C32.1977 20.2708 34.0099 19.5199 36.1935 19.5199C38.3768 19.5199 40.1893 20.2708 41.7345 21.8156C43.2794 23.3608 44.0306 25.1734 44.0306 27.3563C44.0306 29.5399 43.2794 31.3521 41.7345 32.8973C40.1893 34.4425 38.3768 35.1934 36.1935 35.1934C34.0106 35.1934 32.1984 34.4421 30.6529 32.8973C29.1077 31.3524 28.3564 29.5399 28.3564 27.3563C28.3564 25.1734 29.1077 23.3608 30.6529 21.8156Z" fill="#939393"/>
<path d="M54.3155 50.0648C54.2574 49.2269 54.14 48.3129 53.9671 47.3478C53.7926 46.3754 53.5679 45.4562 53.2988 44.616C53.0206 43.7476 52.643 42.8901 52.1756 42.0683C51.691 41.2153 51.1215 40.4726 50.4824 39.8614C49.8141 39.222 48.996 38.7079 48.0498 38.3329C47.107 37.9599 46.0621 37.771 44.9444 37.771C44.5054 37.771 44.0809 37.9511 43.2611 38.4848C42.7565 38.8139 42.1663 39.1944 41.5076 39.6153C40.9443 39.9742 40.1812 40.3105 39.2387 40.6149C38.3191 40.9125 37.3854 41.0634 36.4636 41.0634C35.5424 41.0634 34.6087 40.9125 33.6885 40.6149C32.7469 40.3108 31.9835 39.9746 31.4212 39.6157C30.7687 39.1987 30.1782 38.8181 29.6661 38.4845C28.8469 37.9507 28.4224 37.7706 27.9835 37.7706C26.8654 37.7706 25.8209 37.9599 24.8783 38.3333C23.9329 38.7076 23.1143 39.2217 22.4454 39.8617C21.8063 40.4732 21.2368 41.2156 20.7526 42.0683C20.2858 42.8901 19.9078 43.7473 19.6296 44.6163C19.361 45.4565 19.1362 46.3754 18.9617 47.3478C18.7885 48.3116 18.6714 49.2259 18.6133 50.0658C18.5562 50.8869 18.5273 51.7415 18.5273 52.605C18.5273 54.8496 19.2409 56.6668 20.6479 58.0069C22.0376 59.3293 23.8761 59.9999 26.1125 59.9999H46.8173C49.053 59.9999 50.8915 59.3293 52.2815 58.0069C53.6889 56.6677 54.4025 54.8499 54.4025 52.6047C54.4021 51.7383 54.3729 50.8837 54.3155 50.0648ZM50.5441 56.1812C49.6258 57.0552 48.4068 57.48 46.817 57.48H26.1125C24.5224 57.48 23.3033 57.0552 22.3854 56.1815C21.4848 55.3243 21.0472 54.1541 21.0472 52.605C21.0472 51.7993 21.0738 51.0037 21.1269 50.24C21.1788 49.4907 21.2847 48.6676 21.4419 47.793C21.597 46.9292 21.7945 46.1185 22.0294 45.3847C22.2548 44.681 22.5622 43.9842 22.9434 43.3129C23.3072 42.6732 23.7258 42.1244 24.1878 41.6821C24.6198 41.2684 25.1644 40.9299 25.8061 40.676C26.3996 40.4411 27.0665 40.3125 27.7906 40.2931C27.8788 40.34 28.0359 40.4296 28.2905 40.5956C28.8085 40.9332 29.4056 41.3183 30.0657 41.7399C30.8097 42.2142 31.7683 42.6427 32.9136 43.0124C34.0845 43.391 35.2786 43.5833 36.4639 43.5833C37.6492 43.5833 38.8437 43.391 40.0139 43.0128C41.1601 42.6424 42.1184 42.2142 42.8635 41.7392C43.5389 41.3075 44.1193 40.9335 44.6373 40.5956C44.8919 40.4299 45.049 40.34 45.1373 40.2931C45.8616 40.3125 46.5286 40.4411 47.1224 40.676C47.7637 40.9299 48.3083 41.2688 48.7404 41.6821C49.2023 42.124 49.6209 42.6729 49.9847 43.3133C50.3663 43.9842 50.674 44.6813 50.8991 45.3843C51.1343 46.1192 51.3321 46.9295 51.4869 47.7926C51.6438 48.6689 51.7501 49.4923 51.8019 50.2403V50.241C51.8554 51.0018 51.8823 51.797 51.8826 52.605C51.8823 54.1544 51.4446 55.3243 50.5441 56.1812Z" fill="#939393"/>
</svg>
