<svg width="35" height="35" viewBox="0 0 35 35" fill="none" xmlns="http://www.w3.org/2000/svg">
<circle cx="17.5" cy="17.5" r="17" stroke="black"/>
<g clip-path="url(#clip0)">
<path d="M17.1843 16.9996C18.6955 16.9996 20.0038 16.4576 21.0732 15.3883C22.1422 14.3191 22.6843 13.011 22.6843 11.4996C22.6843 9.98884 22.1423 8.68048 21.073 7.61097C20.0037 6.54198 18.6953 6 17.1843 6C15.673 6 14.3648 6.54199 13.2957 7.61115C12.2265 8.68031 11.6843 9.98867 11.6843 11.4996C11.6843 13.011 12.2265 14.3193 13.2957 15.3885C14.3652 16.4575 15.6735 16.9996 17.1843 16.9996ZM14.242 8.55731C15.0624 7.73693 16.0247 7.33815 17.1843 7.33815C18.3437 7.33815 19.3063 7.73693 20.1268 8.55731C20.9472 9.37787 21.3462 10.3404 21.3462 11.4996C21.3462 12.6592 20.9472 13.6216 20.1268 14.4421C19.3063 15.2627 18.3437 15.6615 17.1843 15.6615C16.0251 15.6615 15.0627 15.2625 14.242 14.4421C13.4214 13.6218 13.0225 12.6592 13.0225 11.4996C13.0225 10.3404 13.4214 9.37787 14.242 8.55731Z" fill="black"/>
<path d="M26.8042 23.532C26.7735 23.0797 26.7113 22.5863 26.6197 22.0653C26.5273 21.5404 26.4082 21.0441 26.2658 20.5906C26.1184 20.1218 25.9184 19.6589 25.6709 19.2153C25.4142 18.7548 25.1126 18.3538 24.7741 18.0239C24.4202 17.6787 23.9869 17.4012 23.4858 17.1988C22.9864 16.9974 22.4331 16.8954 21.8411 16.8954C21.6086 16.8954 21.3838 16.9927 20.9496 17.2808C20.6824 17.4584 20.3698 17.6639 20.0209 17.8911C19.7226 18.0848 19.3185 18.2664 18.8193 18.4307C18.3323 18.5913 17.8378 18.6728 17.3496 18.6728C16.8617 18.6728 16.3672 18.5913 15.8798 18.4307C15.3812 18.2665 14.9769 18.085 14.6791 17.8913C14.3335 17.6662 14.0207 17.4607 13.7495 17.2806C13.3157 16.9925 13.0908 16.8953 12.8584 16.8953C12.2662 16.8953 11.713 16.9974 11.2138 17.199C10.7131 17.4011 10.2796 17.6786 9.92532 18.0241C9.58686 18.3542 9.28523 18.755 9.02878 19.2153C8.78154 19.6589 8.58138 20.1216 8.43404 20.5908C8.29174 21.0443 8.17273 21.5404 8.08029 22.0653C7.98855 22.5856 7.92653 23.0792 7.89577 23.5326C7.86554 23.9758 7.85025 24.4372 7.85025 24.9033C7.85025 26.115 8.22815 27.0959 8.97335 27.8194C9.70935 28.5333 10.683 28.8953 11.8675 28.8953H22.833C24.0171 28.8953 24.9908 28.5333 25.727 27.8194C26.4723 27.0965 26.8502 26.1152 26.8502 24.9031C26.8501 24.4354 26.8346 23.9741 26.8042 23.532V23.532ZM24.8068 26.8338C24.3205 27.3056 23.6748 27.535 22.8329 27.535H11.8675C11.0253 27.535 10.3797 27.3056 9.89352 26.834C9.41659 26.3713 9.18481 25.7396 9.18481 24.9033C9.18481 24.4683 9.19888 24.0389 9.22703 23.6266C9.25448 23.2221 9.3106 22.7778 9.39382 22.3056C9.47601 21.8393 9.5806 21.4017 9.70501 21.0055C9.82437 20.6257 9.98717 20.2495 10.1891 19.8872C10.3818 19.5418 10.6035 19.2455 10.8481 19.0068C11.0769 18.7835 11.3653 18.6007 11.7052 18.4636C12.0195 18.3368 12.3727 18.2674 12.7562 18.257C12.8029 18.2823 12.8862 18.3306 13.021 18.4203C13.2953 18.6025 13.6115 18.8104 13.9611 19.038C14.3552 19.2941 14.8629 19.5253 15.4694 19.7249C16.0895 19.9293 16.722 20.0331 17.3497 20.0331C17.9775 20.0331 18.6101 19.9293 19.2299 19.7251C19.8369 19.5252 20.3444 19.2941 20.739 19.0376C21.0968 18.8046 21.4041 18.6027 21.6785 18.4203C21.8133 18.3308 21.8965 18.2823 21.9433 18.257C22.3269 18.2674 22.6801 18.3368 22.9946 18.4636C23.3343 18.6007 23.6227 18.7837 23.8515 19.0068C24.0962 19.2454 24.3179 19.5416 24.5106 19.8873C24.7126 20.2495 24.8756 20.6258 24.9948 21.0054C25.1194 21.4021 25.2241 21.8395 25.3062 22.3054C25.3892 22.7785 25.4455 23.223 25.473 23.6268V23.6271C25.5013 24.0378 25.5155 24.4671 25.5157 24.9033C25.5155 25.7397 25.2837 26.3713 24.8068 26.8338V26.8338Z" fill="black"/>
</g>
<defs>
<clipPath id="clip0">
<rect x="6" y="6" width="22.5556" height="22.5556" fill="white"/>
</clipPath>
</defs>
</svg>
